<svg width="163" height="143" viewBox="0 0 163 143" fill="none" xmlns="http://www.w3.org/2000/svg">
<path d="M133.266 0C149.412 0.00049065 162.502 13.0899 162.502 29.2363V112.958C162.502 129.104 149.412 142.194 133.266 142.194H49.542C33.3957 142.194 20.3076 129.104 20.3076 112.958V47.5664H20.3037V21.6523H0V0.389648H42.2305V103.833C42.2305 106.259 42.7594 108.539 43.8174 110.669C44.946 112.799 46.4288 114.663 48.2627 116.261C50.1671 117.799 52.3886 119.042 54.9277 119.989C57.4669 120.877 60.1474 121.321 62.9688 121.321H121.056C123.948 121.321 126.664 120.877 129.203 119.989C131.742 119.042 133.93 117.799 135.764 116.261C137.668 114.663 139.149 112.799 140.207 110.669C141.336 108.539 141.899 106.259 141.899 103.833V44.2686C141.899 41.8422 141.336 39.5631 140.207 37.4326C139.149 35.3023 137.668 33.4673 135.764 31.9287C133.93 30.3309 131.742 29.0879 129.203 28.2002C126.664 27.2534 123.947 26.7812 121.056 26.7812H62.9688V0H133.266Z" fill="url(#paint0_linear_81_45)"/>
<rect x="62.8286" y="44.2441" width="58.4724" height="59.8014" rx="5" fill="url(#paint1_linear_81_45)"/>
<defs>
<linearGradient id="paint0_linear_81_45" x1="81.251" y1="0" x2="81.251" y2="142.194" gradientUnits="userSpaceOnUse">
<stop offset="0.254808" stop-color="white"/>
<stop offset="1" stop-color="#A4A4A4"/>
</linearGradient>
<linearGradient id="paint1_linear_81_45" x1="92.0648" y1="44.2441" x2="92.0648" y2="104.045" gradientUnits="userSpaceOnUse">
<stop offset="0.254808" stop-color="white"/>
<stop offset="1" stop-color="#A4A4A4"/>
</linearGradient>
</defs>
</svg>
